<svg  viewBox="0 0 32 32"  fill="#00eeff" stroke="#c50fe5" stroke-width="2px" stroke-linecap="round" stroke-linejoin="round"   xmlns="http://www.w3.org/2000/svg">
  <path d="M15.2 3.925c-.102.011-.438.046-.747.075-2.469.24-5.189 1.374-7.512 3.138-1.666 1.262-3.355 2.99-4.73 4.835a31.973 31.973 0 0 0-1.802 2.726l-.085.154-.325.584v1.126l.325.584c.389.704 1.262 2.035 1.877 2.864 1.36 1.834 3.082 3.598 4.706 4.824 2.376 1.794 4.885 2.851 7.52 3.173.685.083 2.459.085 3.146 0 4.214-.512 8.104-2.912 11.554-7.128.816-1 1.968-2.686 2.549-3.733l.325-.584v-1.126l-.325-.584a31.14 31.14 0 0 0-1.833-2.809l.062.089c-3.446-4.71-7.826-7.61-12.277-8.131-.522-.062-2.126-.112-2.427-.077zm1.909 2.905c.866.096 1.654.278 2.406.54l-.076-.023c.784.259 2.117.89 2.802 1.326 1.862 1.186 3.632 2.878 5.234 5.006.422.56 1.152 1.637 1.403 2.067l.147.253-.147.253c-.251.43-.981 1.507-1.403 2.067-1.602 2.128-3.371 3.821-5.234 5.006-.799.489-1.723.936-2.692 1.291l-.11.035c-2.864.946-5.667.726-8.45-.658-1.45-.723-2.386-1.384-3.832-2.71-1.318-1.21-3.107-3.442-4.034-5.032l-.147-.253.147-.253c.403-.693 1.325-2.005 1.939-2.76 2.386-2.934 4.912-4.813 7.658-5.696a10.62 10.62 0 0 1 3.304-.515c.382 0 .759.02 1.131.058l-.047-.004zm-1.973 3.808c-3.074.504-5.075 3.44-4.44 6.515.422 2.043 2.11 3.722 4.187 4.162a6.566 6.566 0 0 0 2.273-.006 5.498 5.498 0 0 0 4.192-4.162 6.566 6.566 0 0 0-.006-2.273c-.442-2.08-2.115-3.762-4.168-4.189a6.485 6.485 0 0 0-2.044-.052zm1.533 2.885c.821.213 1.597.989 1.81 1.808.17.658.054 1.462-.285 1.992-.501.779-1.312 1.237-2.194 1.237-.696 0-1.23-.221-1.76-.725a2.505 2.505 0 0 1-.715-2.521c.21-.806.986-1.59 1.786-1.806a3.086 3.086 0 0 1 1.382.002z"/>
</svg>

