<svg xmlns="http://www.w3.org/2000/svg" aria-hidden="true" style="position:absolute;width:0;height:0;overflow:hidden">
<defs>
<symbol id="icon-heart-full" viewBox="0 0 35 32">
  <path fill="#00eeff" d="M8.407 2.583c-3.111 0.513-5.578 2.688-6.438 5.679-0.182 0.627-0.287 1.347-0.287 2.092 0 0.032 0 0.063 0.001 0.095l-0-0.005c0 1.635 0.436 3.075 1.351 4.461 0.316 0.48 1.168 1.354 7.389 7.583l7.030 7.040 6.784-6.778c3.729-3.728 6.953-6.988 7.159-7.244 2.012-2.48 2.364-5.894 0.897-8.682-1.103-2.084-3.044-3.599-5.361-4.109l-0.053-0.010c-0.582-0.128-2.070-0.177-2.688-0.089-1.428 0.201-2.699 0.751-3.762 1.562-0.233 0.172-0.935 0.813-1.559 1.424-1.241 1.212-1.337 1.271-1.734 1.081-0.108-0.051-0.444-0.359-0.746-0.684-1.165-1.249-2.31-2.189-3.232-2.653-0.548-0.265-1.188-0.493-1.855-0.65-0.675-0.15-2.18-0.195-2.851-0.084z"/>
</symbol>

<symbol id="icon-heart-transparent" viewBox="0 0 38 32">
  <path d="M10.116 0.355c-1.781 0.204-3.386 0.815-4.766 1.737l0.039-0.025c-0.86 0.572-2.125 1.839-2.689 2.692-2.067 3.12-2.317 6.887-0.675 10.211 0.736 1.492 0.527 1.264 8.592 9.348 4.208 4.217 7.479 7.447 7.612 7.516 0.323 0.169 1.037 0.169 1.361 0.001 0.333-0.173 14.714-14.593 15.155-15.197 1.399-1.913 2.065-3.897 2.065-6.144 0-5.167-3.802-9.425-8.977-10.058-0.826-0.1-2.269-0.039-3.094 0.132-1.945 0.406-3.511 1.231-5.1 2.682l-0.73 0.668-0.794-0.727c-0.915-0.839-1.623-1.343-2.521-1.792-1.246-0.643-2.716-1.028-4.274-1.05-0.156-0.006-0.34-0.009-0.524-0.009-0.237 0-0.472 0.005-0.706 0.016zM12.121 3.309c1.078 0.161 2.209 0.611 3.069 1.217 0.225 0.159 0.979 0.847 1.673 1.527 1.343 1.316 1.472 1.407 2.047 1.407 0.573 0 0.704-0.09 2.047-1.405 0.735-0.721 1.447-1.36 1.703-1.529 1.367-0.896 2.774-1.295 4.349-1.231 3.735 0.141 6.729 3.126 6.884 6.844 0.076 1.703-0.388 3.261-1.373 4.601-0.269 0.368-2.413 2.556-6.999 7.148l-6.611 6.618-6.64-6.649c-3.652-3.658-6.771-6.823-6.929-7.034-0.865-1.126-1.409-2.54-1.473-4.077-0.166-3.591 2.448-6.833 5.967-7.404l0.567-0.095c0.272-0.054 1.177-0.022 1.721 0.061z"/>
</symbol>

<symbol id="icon-eye" viewBox="0 0 32 32">
  <path d="M15.2 3.925c-.102.011-.438.046-.747.075-2.469.24-5.189 1.374-7.512 3.138-1.666 1.262-3.355 2.99-4.73 4.835a31.973 31.973 0 0 0-1.802 2.726l-.085.154-.325.584v1.126l.325.584c.389.704 1.262 2.035 1.877 2.864 1.36 1.834 3.082 3.598 4.706 4.824 2.376 1.794 4.885 2.851 7.52 3.173.685.083 2.459.085 3.146 0 4.214-.512 8.104-2.912 11.554-7.128.816-1 1.968-2.686 2.549-3.733l.325-.584v-1.126l-.325-.584a31.14 31.14 0 0 0-1.833-2.809l.062.089c-3.446-4.71-7.826-7.61-12.277-8.131-.522-.062-2.126-.112-2.427-.077zm1.909 2.905c.866.096 1.654.278 2.406.54l-.076-.023c.784.259 2.117.89 2.802 1.326 1.862 1.186 3.632 2.878 5.234 5.006.422.56 1.152 1.637 1.403 2.067l.147.253-.147.253c-.251.43-.981 1.507-1.403 2.067-1.602 2.128-3.371 3.821-5.234 5.006-.799.489-1.723.936-2.692 1.291l-.11.035c-2.864.946-5.667.726-8.45-.658-1.45-.723-2.386-1.384-3.832-2.71-1.318-1.21-3.107-3.442-4.034-5.032l-.147-.253.147-.253c.403-.693 1.325-2.005 1.939-2.76 2.386-2.934 4.912-4.813 7.658-5.696a10.62 10.62 0 0 1 3.304-.515c.382 0 .759.02 1.131.058l-.047-.004zm-1.973 3.808c-3.074.504-5.075 3.44-4.44 6.515.422 2.043 2.11 3.722 4.187 4.162a6.566 6.566 0 0 0 2.273-.006 5.498 5.498 0 0 0 4.192-4.162 6.566 6.566 0 0 0-.006-2.273c-.442-2.08-2.115-3.762-4.168-4.189a6.485 6.485 0 0 0-2.044-.052zm1.533 2.885c.821.213 1.597.989 1.81 1.808.17.658.054 1.462-.285 1.992-.501.779-1.312 1.237-2.194 1.237-.696 0-1.23-.221-1.76-.725a2.505 2.505 0 0 1-.715-2.521c.21-.806.986-1.59 1.786-1.806a3.086 3.086 0 0 1 1.382.002z"/>
</symbol>

<symbol id="icon-eye-stroke" viewBox="0 0 32 32">
  <path d="M.534.154a1.64 1.64 0 0 0-.381.381c-.146.216-.154.259-.154.798 0 .542.008.581.158.805.086.13 1.414 1.493 2.952 3.027l2.794 2.792-1.237 1.235c-1.85 1.846-3.05 3.411-4.286 5.584l-.381.669v1.118l.325.584c.661 1.194 1.834 2.877 2.878 4.133.654.786 2.117 2.269 2.797 2.834 2.688 2.235 5.304 3.464 8.24 3.867a15.58 15.58 0 0 0 3.65-.035l-.077.008a15.823 15.823 0 0 0 4.182-1.211l-.1.04c.606-.274.653-.298 1.403-.73l.445-.254 3.022 3.014c1.662 1.659 3.099 3.054 3.192 3.101.125.062.322.086.726.086.522 0 .568-.01.782-.154a1.64 1.64 0 0 0 .381-.381c.146-.216.154-.259.154-.798 0-.542-.008-.581-.158-.805C31.627 29.54 2.255.192 2.043.084c-.125-.061-.325-.085-.726-.085-.522 0-.568.01-.782.154zM14.773 3.95c-.57.058-1.286.173-1.827.296a1.453 1.453 0 0 0-.968.677l-.004.007c-.12.211-.191.464-.191.733 0 .206.041.402.117.581l-.004-.01c.15.352.509.674.869.779.347.104.454.101 1.062-.024 2.402-.493 4.845-.147 7.184 1.016.456.227 1.008.528 1.229.669 1.862 1.186 3.632 2.878 5.234 5.006.421.56 1.152 1.637 1.402 2.066l.147.253-.122.202a23.772 23.772 0 0 1-1.869 2.694c-.18.217-.354.458-.513.711l-.017.029a1.401 1.401 0 0 0 .218 1.555l-.001-.001a1.399 1.399 0 0 0 1.909.213l-.004.003c.517-.381 2.144-2.666 3.072-4.314l.302-.536v-1.117l-.325-.584a31.14 31.14 0 0 0-1.833-2.809l.062.089c-3.448-4.71-7.819-7.606-12.277-8.133-.691-.082-2.262-.109-2.854-.05zm-3.656 9.562a5.514 5.514 0 0 0-.609 3.162l-.002-.024c.304 2.611 2.25 4.555 4.85 4.842a5.517 5.517 0 0 0 2.978-.542l-.032.014.406-.205 1.446 1.446c.795.797 1.446 1.466 1.446 1.486 0 .11-1.514.766-2.347 1.018-1.195.362-2.104.491-3.413.485-1.424-.008-2.389-.187-3.733-.698-1.718-.651-3.218-1.624-4.95-3.213-1.318-1.208-3.107-3.442-4.032-5.03L2.978 16l.202-.334a23.543 23.543 0 0 1 4.211-5.131l.574-.518 3.274 3.274-.122.221zm5.27 5.109c-.464.106-1.186-.003-1.68-.254-.357-.181-.893-.717-1.074-1.074a2.742 2.742 0 0 1-.264-1.647l-.002.015.034-.205 1.566 1.565c1.498 1.496 1.56 1.568 1.419 1.6z"/>
</symbol>

<symbol id="icon-instagram" viewBox="0 0 32 32">
      <path d="M31.969 9.408c-.075-1.7-.35-2.869-.744-3.882a7.803 7.803 0 0 0-1.85-2.838A7.867 7.867 0 0 0 26.543.844C25.524.45 24.361.175 22.661.1 20.948.019 20.404 0 16.06 0s-4.888.019-6.595.094c-1.7.075-2.869.35-3.882.744a7.803 7.803 0 0 0-2.838 1.85A7.867 7.867 0 0 0 .901 5.52C.507 6.539.232 7.702.157 9.402c-.081 1.713-.1 2.257-.1 6.601s.019 4.888.094 6.595c.075 1.7.35 2.869.744 3.882a7.895 7.895 0 0 0 1.85 2.838 7.867 7.867 0 0 0 2.832 1.844c1.019.394 2.182.669 3.882.744 1.706.075 2.25.094 6.595.094s4.888-.019 6.595-.094c1.7-.075 2.869-.35 3.882-.744a8.181 8.181 0 0 0 4.682-4.682c.394-1.019.669-2.182.744-3.882.075-1.707.094-2.25.094-6.595s-.006-4.888-.081-6.595zm-2.882 13.065c-.069 1.563-.331 2.407-.55 2.969a5.31 5.31 0 0 1-3.038 3.038c-.563.219-1.413.481-2.969.55-1.688.075-2.194.094-6.464.094s-4.782-.019-6.464-.094c-1.563-.069-2.407-.331-2.969-.55a4.926 4.926 0 0 1-1.838-1.194 4.974 4.974 0 0 1-1.194-1.838c-.219-.563-.481-1.413-.55-2.969-.075-1.688-.094-2.194-.094-6.464s.019-4.782.094-6.464c.069-1.563.331-2.407.55-2.969a4.868 4.868 0 0 1 1.2-1.838A4.974 4.974 0 0 1 6.639 3.55c.563-.219 1.413-.481 2.969-.55 1.688-.075 2.194-.094 6.464-.094 4.276 0 4.782.019 6.464.094 1.563.069 2.407.331 2.969.55a4.914 4.914 0 0 1 1.838 1.194 4.974 4.974 0 0 1 1.194 1.838c.219.563.481 1.413.55 2.969.075 1.688.094 2.194.094 6.464s-.019 4.77-.094 6.458z"/>
      <path d="M16.059 7.783c-4.538 0-8.22 3.682-8.22 8.22s3.682 8.22 8.22 8.22 8.22-3.682 8.22-8.22-3.682-8.22-8.22-8.22zm0 13.552a5.333 5.333 0 0 1 0-10.664 5.333 5.333 0 0 1 0 10.664zM26.524 7.458a1.919 1.919 0 1 1-3.838 0 1.919 1.919 0 0 1 3.838 0z"/>
    </symbol>
    <symbol id="icon-facebook" viewBox="0 0 32 32">
      <path d="M21.329 5.313h2.921V.225C23.746.156 22.013 0 19.994 0c-4.212 0-7.097 2.649-7.097 7.519V12H8.249v5.688h4.648V32h5.699V17.689h4.46l.708-5.688h-5.169V8.082c.001-1.644.444-2.769 2.735-2.769z"/>
    </symbol>
    <symbol id="icon-linkedin" viewBox="0 0 32 32">
      <path d="M31.992 32v-.001H32V20.263c0-5.741-1.236-10.164-7.948-10.164-3.227 0-5.392 1.771-6.276 3.449h-.093v-2.913h-6.364v21.364h6.627V21.42c0-2.785.528-5.479 3.977-5.479 3.399 0 3.449 3.179 3.449 5.657v10.401h6.62zM.528 10.636h6.635V32H.528V10.636zM3.843 0C1.722 0 0 1.721 0 3.843s1.721 3.879 3.843 3.879c2.121 0 3.843-1.757 3.843-3.879A3.846 3.846 0 0 0 3.843 0z"/>
    </symbol>

</defs>
</svg>
















