<svg xmlns="http://www.w3.org/2000/svg" xmlns:xlink="http://www.w3.org/1999/xlink" aria-hidden="true" role="img"  width="31.88" height="32"  height="1em" fill="currentColor" viewBox="0 0 512 512">
<defs>
  <path d="M113.778 28q19.555 1.778 21.333 21.333V84.89h128V49.333Q264.89 29.778 284.444 28 304 29.778 305.778 49.333V84.89h35.555q24 .889 40 16.889t16.89 40v56.889H42.665v227.555q.89 13.334 14.223 14.222h176.889l-5.334 17.778q-2.666 13.334 1.778 24.89H56.89q-24-.89-40-16.89T0 426.222V141.778q.889-24 16.889-40t40-16.89h35.555V49.334Q94.222 29.778 113.778 28Zm-7.111 227.556H263.11 106.667 263.11q19.556 1.777 21.333 21.333-1.777 19.555-21.333 21.333H106.667q-19.556-1.778-21.334-21.333 1.778-19.556 21.334-21.333ZM85.333 362.222q1.778-19.555 21.334-21.333h99.555q19.556 1.778 21.334 21.333-1.778 19.556-21.334 21.334h-99.555q-19.556-1.778-21.334-21.334ZM488.89 237.778l12.444 12.444-12.444-12.444 12.444 12.444Q512 260.89 512 275.112q0 14.221-10.667 25.777l-25.777 25.778-63.112-63.111 25.778-25.778q11.556-10.667 24.89-10.667 14.221 0 25.777 10.667ZM277.333 398.667 392 284 277.333 398.667 392 284l63.111 63.111-114.667 114.667q-5.333 5.333-13.333 7.11l-53.333 13.334q-8 1.778-13.334-3.555-5.333-5.334-4.444-13.334L269.333 412q2.667-8 8-13.333Z"/>
<defs>
</svg>
